<?xml version="1.0" standalone="no"?>
<!DOCTYPE svg PUBLIC "-//W3C//DTD SVG 20010904//EN"
 "http://www.w3.org/TR/2001/REC-SVG-20010904/DTD/svg10.dtd">
<svg version="1.0" xmlns="http://www.w3.org/2000/svg"
 width="700.000000pt" height="700.000000pt" viewBox="0 0 700.000000 700.000000"
 preserveAspectRatio="xMidYMid meet">
<metadata>
Created by potrace 1.14, written by Peter Selinger 2001-2017
</metadata>
<g transform="translate(0.000000,700.000000) scale(0.100000,-0.100000)"
fill="#000000" stroke="none">
<path d="M3375 6524 c-38 -20 -124 -66 -190 -102 -66 -35 -269 -145 -452 -243
-182 -98 -364 -196 -405 -218 -356 -192 -535 -288 -548 -294 -8 -4 -33 -18
-55 -30 -22 -13 -89 -49 -150 -81 -60 -32 -157 -84 -215 -116 -58 -31 -139
-75 -180 -97 -41 -22 -100 -54 -130 -70 -30 -17 -93 -50 -140 -76 -47 -25
-107 -57 -135 -72 -27 -15 -88 -48 -135 -73 -115 -61 -138 -78 -169 -128 -53
-82 -33 -212 40 -273 17 -14 63 -43 103 -64 39 -21 139 -75 221 -119 83 -45
177 -96 210 -113 33 -18 85 -45 115 -62 30 -17 99 -54 153 -83 54 -29 97 -54
95 -56 -4 -3 -550 -298 -708 -381 -166 -88 -211 -121 -238 -177 -60 -120 -9
-238 134 -312 33 -17 84 -45 114 -61 70 -39 590 -318 653 -351 42 -22 45 -26
30 -37 -17 -11 -197 -110 -348 -190 -383 -204 -528 -285 -547 -307 -60 -69
-75 -163 -38 -243 22 -48 65 -88 137 -125 26 -13 86 -45 133 -71 47 -25 119
-64 160 -86 78 -41 156 -83 350 -188 63 -35 151 -82 195 -105 91 -49 187 -100
260 -140 63 -34 160 -87 245 -132 36 -19 97 -52 135 -73 39 -20 133 -71 210
-113 77 -41 163 -87 190 -102 28 -15 84 -45 125 -67 41 -23 242 -131 446 -241
205 -110 386 -203 404 -207 80 -18 113 -6 335 115 28 15 82 44 120 65 39 21
93 50 120 65 28 15 203 109 390 210 187 100 372 199 410 220 39 21 90 49 115
62 25 13 74 40 110 60 80 44 423 228 545 293 50 26 104 56 120 65 17 10 65 36
108 59 126 67 212 114 387 208 91 48 182 97 203 108 130 67 180 186 128 301
-34 74 -32 73 -591 372 -36 19 -87 47 -115 62 -27 15 -94 51 -148 80 -54 29
-97 54 -95 55 3 4 317 173 583 315 177 95 281 153 308 172 55 39 87 128 74
203 -16 94 -54 131 -237 227 -47 25 -168 90 -270 145 -102 55 -219 118 -260
140 -125 67 -195 105 -198 108 -2 2 45 29 105 60 59 32 128 69 153 83 50 27
136 73 250 135 41 22 98 52 125 67 28 15 93 50 145 78 113 61 140 83 169 139
41 82 20 198 -47 254 -37 31 -62 45 -267 153 -60 33 -114 62 -120 66 -5 4 -55
31 -110 60 -55 29 -122 65 -150 80 -27 15 -84 45 -125 67 -41 22 -154 83 -250
135 -96 52 -215 116 -265 143 -125 66 -230 123 -295 158 -106 57 -176 95 -240
129 -36 20 -121 66 -190 103 -69 37 -159 86 -200 108 -41 22 -97 52 -125 67
-27 15 -144 78 -260 140 -115 62 -235 126 -265 143 -40 21 -73 31 -120 34 -60
4 -70 2 -135 -33z m188 -463 c29 -15 102 -54 162 -86 61 -32 115 -61 120 -65
6 -4 60 -33 120 -65 61 -32 149 -80 198 -107 48 -26 89 -48 91 -48 3 0 31 -15
63 -34 32 -18 99 -55 148 -81 50 -26 113 -60 140 -75 28 -15 95 -51 150 -80
55 -29 105 -56 110 -60 6 -4 69 -38 140 -75 72 -37 135 -71 140 -75 6 -4 60
-33 120 -65 61 -32 124 -66 140 -75 31 -18 105 -58 240 -130 146 -78 230 -123
233 -125 3 -3 -49 -32 -233 -130 -33 -18 -91 -50 -130 -70 -38 -21 -88 -48
-110 -60 -22 -12 -85 -45 -140 -75 -55 -29 -113 -61 -130 -70 -16 -10 -75 -41
-130 -70 -55 -29 -122 -65 -150 -80 -109 -59 -747 -403 -890 -480 -44 -23
-167 -89 -272 -147 l-193 -104 -247 134 c-137 74 -284 153 -328 177 -44 24
-161 87 -260 140 -99 53 -229 123 -290 155 -60 32 -114 61 -120 65 -5 4 -50
29 -100 55 -49 26 -207 111 -350 188 -281 151 -303 163 -533 287 l-154 82 69
37 c71 39 202 110 313 169 68 36 155 83 280 152 41 22 93 50 115 61 22 10 58
29 80 42 37 21 107 59 315 170 41 22 95 51 120 65 25 13 79 43 120 65 223 119
427 229 440 237 8 5 38 21 65 34 28 14 140 75 250 135 110 60 206 110 213 110
7 1 36 -12 65 -28z m-1478 -2266 c22 -12 69 -38 105 -57 36 -19 106 -57 155
-83 50 -27 306 -165 570 -307 264 -142 500 -266 525 -274 76 -26 114 -14 345
111 50 26 125 68 167 92 43 23 79 43 81 43 3 0 53 27 112 60 59 33 109 60 111
60 2 0 48 24 101 54 54 29 130 70 168 91 165 88 260 139 425 229 l175 94 85
-45 c47 -25 108 -58 135 -73 55 -30 261 -142 370 -200 39 -21 91 -49 118 -63
47 -26 47 -26 25 -41 -12 -9 -26 -16 -29 -16 -4 0 -38 -17 -76 -38 -37 -21
-104 -58 -148 -82 -44 -23 -107 -57 -140 -75 -161 -87 -1380 -742 -1445 -777
-41 -22 -97 -53 -125 -68 -59 -33 -152 -82 -293 -157 l-102 -55 -63 32 c-34
18 -80 43 -102 55 -22 12 -69 38 -105 58 -36 19 -355 191 -710 382 -355 191
-672 362 -705 380 -33 18 -96 51 -140 75 -44 23 -98 53 -120 65 -22 12 -85 46
-140 75 -55 29 -120 64 -145 78 -25 14 -69 38 -98 53 l-52 27 71 41 c39 23 72
41 74 41 2 0 73 38 157 83 84 46 203 110 263 142 61 32 128 69 150 81 l40 22
85 -45 c47 -25 103 -56 125 -68z m75 -1353 c323 -174 399 -215 580 -312 188
-101 257 -138 315 -170 58 -32 139 -76 280 -151 91 -49 106 -54 165 -54 65 0
67 1 305 129 132 71 263 141 290 156 63 34 414 223 480 259 268 146 544 291
551 291 5 0 20 -6 34 -13 86 -45 227 -121 235 -127 6 -4 64 -36 130 -70 66
-35 140 -75 165 -89 25 -14 75 -42 112 -61 37 -19 68 -38 68 -42 0 -7 -68 -45
-225 -128 -55 -29 -104 -56 -110 -60 -5 -4 -59 -33 -120 -65 -60 -32 -132 -70
-160 -85 -27 -15 -81 -45 -120 -65 -38 -21 -97 -52 -130 -70 -85 -46 -180 -97
-330 -178 -71 -38 -173 -93 -225 -121 -52 -28 -106 -57 -120 -64 -14 -6 -32
-16 -40 -22 -14 -9 -289 -157 -445 -240 -38 -21 -129 -70 -202 -109 -72 -39
-136 -71 -141 -71 -10 0 -101 47 -217 112 -27 15 -57 31 -65 35 -8 3 -87 46
-175 93 -88 48 -209 113 -270 145 -60 32 -114 61 -120 65 -5 4 -59 33 -120 65
-116 61 -210 111 -285 153 -25 14 -79 43 -120 65 -138 74 -724 389 -775 417
-57 31 -178 97 -213 115 -22 12 -19 15 65 60 48 27 111 60 138 75 28 15 97 52
155 83 58 31 164 88 235 126 72 39 135 70 140 71 6 0 134 -67 285 -148z"/>
</g>
</svg>
